<svg xmlns="http://www.w3.org/2000/svg" width="24" height="24" viewBox="0 0 24 24"><path d="M16.85,24H7.15A7.158,7.158,0,0,1,0,16.85V7.15A7.158,7.158,0,0,1,7.15,0h9.7A7.158,7.158,0,0,1,24,7.15v9.7A7.158,7.158,0,0,1,16.85,24ZM7.15,2.414A4.741,4.741,0,0,0,2.414,7.15v9.7A4.741,4.741,0,0,0,7.15,21.585h9.7a4.74,4.74,0,0,0,4.735-4.735V7.15A4.741,4.741,0,0,0,16.85,2.414ZM12,18.207A6.207,6.207,0,1,1,18.207,12,6.214,6.214,0,0,1,12,18.207Zm0-10A3.793,3.793,0,1,0,15.793,12,3.8,3.8,0,0,0,12,8.207Zm6.219-.881A1.488,1.488,0,1,1,19.707,5.84,1.489,1.489,0,0,1,18.219,7.327Z" fill="#fff"/></svg>